<svg width="7.000000" height="15.000000" viewBox="0 0 7 15" fill="none" xmlns="http://www.w3.org/2000/svg" xmlns:xlink="http://www.w3.org/1999/xlink">
	<desc>
			Created with Pixso.
	</desc>
	<defs/>
	<path id="facebook" d="M-0.72 7.67L0.94 7.67L0.94 14.5C0.94 14.57 0.96 14.63 1.01 14.67C1.05 14.72 1.12 14.75 1.18 14.75L3.99 14.75C4.06 14.75 4.12 14.72 4.17 14.67C4.21 14.63 4.24 14.57 4.24 14.5L4.24 7.71L6.14 7.71C6.2 7.7 6.26 7.68 6.31 7.64C6.35 7.6 6.38 7.55 6.39 7.49L6.68 4.98C6.68 4.94 6.68 4.91 6.67 4.87C6.66 4.84 6.64 4.81 6.62 4.79C6.59 4.76 6.57 4.74 6.53 4.72C6.5 4.71 6.47 4.7 6.43 4.7L4.23 4.7L4.23 3.13C4.23 2.65 4.49 2.41 4.99 2.41L6.43 2.41C6.5 2.41 6.56 2.39 6.6 2.34C6.65 2.29 6.67 2.23 6.67 2.17L6.67 -0.14C6.68 -0.2 6.65 -0.27 6.61 -0.31C6.56 -0.36 6.5 -0.38 6.43 -0.38L4.45 -0.38L4.36 -0.38C3.45 -0.38 2.57 -0.05 1.88 0.55C1.56 0.83 1.31 1.19 1.16 1.6C1.01 2 0.96 2.43 1.02 2.86L1.02 4.7L-0.72 4.7C-0.79 4.7 -0.85 4.73 -0.9 4.78C-0.94 4.82 -0.97 4.88 -0.97 4.95L-0.97 7.43C-0.97 7.46 -0.96 7.49 -0.95 7.52C-0.94 7.55 -0.92 7.58 -0.89 7.6C-0.87 7.63 -0.84 7.64 -0.81 7.66C-0.78 7.67 -0.75 7.67 -0.72 7.67Z" fill="#385C8E" fill-opacity="1.000000" fill-rule="nonzero"/>
</svg>
