<svg width="124.000000" height="15.000000" viewBox="0 0 124 15" fill="none" xmlns="http://www.w3.org/2000/svg" xmlns:xlink="http://www.w3.org/1999/xlink">
	<desc>
			Created with Pixso.
	</desc>
	<defs/>
	<path id="star" d="M68.14 4.97L63.89 8.5L65.14 14.22L61.01 10.76L56.61 14.04L58.31 8.38L54.34 4.68L59.52 4.64L61.47 -0.92L62.97 4.71L68.14 4.97Z" fill="#FFC600" fill-opacity="1.000000" fill-rule="nonzero"/>
	<path id="star copy 3" d="M40.69 4.97L36.43 8.5L37.69 14.22L33.55 10.76L29.16 14.04L30.86 8.38L26.89 4.68L32.07 4.64L34.02 -0.92L35.52 4.71L40.69 4.97Z" fill="#FFC600" fill-opacity="1.000000" fill-rule="nonzero"/>
	<path id="star copy 4" d="M13.24 4.97L8.99 8.5L10.24 14.22L6.11 10.76L1.71 14.04L3.41 8.38L-0.56 4.68L4.62 4.64L6.57 -0.92L8.07 4.71L13.24 4.97Z" fill="#FFC600" fill-opacity="1.000000" fill-rule="nonzero"/>
	<path id="star copy" d="M95.59 4.97L91.34 8.5L92.59 14.22L88.46 10.76L84.06 14.04L85.76 8.38L81.79 4.68L86.97 4.64L88.92 -0.92L90.42 4.71L95.59 4.97Z" fill="#FFC600" fill-opacity="1.000000" fill-rule="nonzero"/>
	<path id="star copy 2" d="M123.04 4.97L118.79 8.5L120.04 14.22L115.91 10.76L111.51 14.04L113.21 8.38L109.24 4.68L114.42 4.64L116.37 -0.92L117.87 4.71L123.04 4.97Z" fill="#C1C8CE" fill-opacity="1.000000" fill-rule="nonzero"/>
</svg>
