<svg width="15.000000" height="12.000000" viewBox="0 0 15 12" fill="none" xmlns="http://www.w3.org/2000/svg" xmlns:xlink="http://www.w3.org/1999/xlink">
	<desc>
			Created with Pixso.
	</desc>
	<defs/>
	<path id="twitter" d="M14.6 1.02C14.05 1.26 13.46 1.42 12.87 1.5C13.5 1.12 13.97 0.53 14.19 -0.16C13.6 0.19 12.96 0.43 12.29 0.56C11.88 0.12 11.34 -0.18 10.76 -0.31C10.17 -0.45 9.55 -0.4 8.99 -0.18C8.43 0.04 7.95 0.43 7.61 0.93C7.28 1.42 7.1 2.01 7.1 2.61C7.09 2.84 7.12 3.07 7.17 3.3C5.97 3.24 4.81 2.93 3.74 2.39C2.67 1.85 1.73 1.09 0.98 0.16C0.6 0.82 0.48 1.6 0.65 2.35C0.82 3.09 1.27 3.75 1.91 4.17C1.43 4.16 0.97 4.03 0.55 3.8L0.55 3.83C0.55 4.53 0.79 5.2 1.23 5.73C1.66 6.27 2.27 6.64 2.95 6.78C2.69 6.85 2.43 6.88 2.16 6.88C1.97 6.89 1.78 6.87 1.6 6.83C1.79 7.43 2.16 7.95 2.66 8.32C3.16 8.69 3.77 8.9 4.4 8.92C3.33 9.75 2.03 10.2 0.68 10.2C0.44 10.2 0.2 10.19 -0.04 10.16C1.33 11.04 2.93 11.51 4.56 11.5C5.69 11.51 6.8 11.3 7.84 10.87C8.88 10.44 9.82 9.82 10.62 9.02C11.41 8.23 12.04 7.28 12.47 6.24C12.89 5.2 13.11 4.09 13.1 2.97C13.1 2.84 13.1 2.71 13.09 2.58C13.68 2.16 14.19 1.63 14.6 1.02Z" fill="#03A9F4" fill-opacity="1.000000" fill-rule="nonzero"/>
</svg>
